<svg xmlns="http://www.w3.org/2000/svg" width="64" height="64" viewBox="0 0 64 64"><path fill="#FFF" fill-rule="evenodd" d="M31 16.01v6.998c3.453 0 12 .375 12 11.998v2c3.729.65 9 3.333 9 12.997V64H29V33.006l-3-2-3 2V64H.038S.006 54.358.001 50.969L0 50.2c0-9.551 5.394-12.474 9-13.196v-2C9 23.642 14.709 23.03 20.598 23.01H21v-7h10zM11 45.004c-2.599 0-5 2.952-5 4.999v4.999h10v-5.999c0-2.002-2.402-4-5-4zm30 0c-2.599 0-5 2.952-5 4.999v4.999h10v-5c0-2-2.402-4.998-5-4.998zM55.17 2.28C58.12-.31 64 .013 64 .013s.385 9.774-9.497 9.265c0 5.116-4.621 6.772-6.893 6.772-7.016 0-6.676-9.192-11.902-9.192C30.901 6.858 31 13.01 31 13.01h-9s-1.855-8.978 3.604-11.289c7.539-3.192 13.235-.103 14.52 1.198 1.914 1.942 3.088 4.27 6.599 4.27 3.751 0 6.943-3.588 8.447-4.909z"/></svg>
